<?xml version="1.0" encoding="UTF-8"?> <svg xmlns="http://www.w3.org/2000/svg" xmlns:xlink="http://www.w3.org/1999/xlink" width="693.35" height="342.465" viewBox="0 0 693.35 342.465"><defs><clipPath id="clip-path"><rect id="Rectangle_1175" data-name="Rectangle 1175" width="484.467" height="165.476" fill="#fff"></rect></clipPath></defs><g id="Group_945" data-name="Group 945" transform="translate(6878 16532)"><g id="logo" transform="translate(-7169.314 -17369.141)"><g id="Group_723" data-name="Group 723" transform="translate(291.314 837.14)"><path id="Path_31-2" data-name="Path 31-2" d="M291.314,831.141h693.35V1173.6H291.314Z" transform="translate(-291.314 -831.141)" fill="#003781"></path></g></g><g id="femd_logo" transform="translate(-6788.8 -16465.9)"><path id="Path_452" data-name="Path 452" d="M52.111,62.7,41,99.441h-.285L29.9,62.7H14.8v48.418h8.829V71.244h.285l12.532,39.874h8.829L58.092,71.244h0v39.874h9.114V62.7Z" transform="translate(0 75.404)" fill="#fff"></path><g id="Group_944" data-name="Group 944" transform="translate(14.8 21.9)"><g id="Group_923" data-name="Group 923" transform="translate(0 0)" clip-path="url(#clip-path)"><path id="Path_453" data-name="Path 453" d="M65.505,101.362a21.911,21.911,0,0,1-11.962,2.848C42.151,104.211,35.6,97.375,35.6,85.7c0-10.253,5.411-18.8,15.95-18.8,12.817,0,16.519,9.114,16.519,21.646H44.144a9.214,9.214,0,0,0,9.968,9.114,22.546,22.546,0,0,0,11.393-3.7ZM59.524,82c-.285-4.557-2.279-8.544-7.405-8.544s-7.69,3.7-7.975,8.544Z" transform="translate(23.641 61.266)" fill="#fff"></path></g><g id="Group_924" data-name="Group 924" transform="translate(0 0)" clip-path="url(#clip-path)"><path id="Path_454" data-name="Path 454" d="M73.748,108.794h0a13.355,13.355,0,0,1-10.823,4.842c-10.538,0-14.525-9.114-14.525-18.8,0-9.968,3.987-18.513,14.525-18.513a11.831,11.831,0,0,1,10.253,5.127h0V61.8h8.829v51.266H73.179v-4.272Zm-8.26-2.279c5.981,0,7.975-6.551,7.975-11.677s-2.279-11.393-7.975-11.393S58.084,90,58.084,94.838c0,5.127,1.709,11.677,7.405,11.677" transform="translate(47.297 51.84)" fill="#fff"></path></g><g id="Group_925" data-name="Group 925" transform="translate(0 0)" clip-path="url(#clip-path)"><path id="Path_455" data-name="Path 455" d="M63.4,61.7h8.829v8.829H63.4Zm0,15.38h8.829v35.886H63.4Z" transform="translate(75.019 51.656)" fill="#fff"></path></g><g id="Group_926" data-name="Group 926" transform="translate(0 0)" clip-path="url(#clip-path)"><path id="Path_456" data-name="Path 456" d="M93.394,75.458a12.367,12.367,0,0,0-5.981-1.424C82,74.034,78.3,78.591,78.3,85.427c0,6.551,3.133,11.677,9.4,11.677A15.046,15.046,0,0,0,94.533,95.4l.285,7.69a27.687,27.687,0,0,1-8.829,1.139c-11.393,0-17.089-7.975-17.089-18.8,0-10.253,5.981-18.513,16.519-18.513a26.589,26.589,0,0,1,8.829,1.139Z" transform="translate(85.184 61.252)" fill="#fff"></path></g><g id="Group_927" data-name="Group 927" transform="translate(0 0)" clip-path="url(#clip-path)"><path id="Path_457" data-name="Path 457" d="M82.818,69.648A29.484,29.484,0,0,1,94.78,66.8c10.538,0,14.81,4.557,14.81,15.1V95.281c0,2.563.285,5.127.285,7.975H101.9a40.322,40.322,0,0,1-.285-5.411h0a12.1,12.1,0,0,1-10.538,6.266c-5.981,0-11.962-3.7-11.962-10.538A10.581,10.581,0,0,1,85.1,83.319a26.6,26.6,0,0,1,11.677-1.994h4.842c0-5.7-2.563-7.69-7.69-7.69a16.18,16.18,0,0,0-10.538,3.987ZM93.356,97.56a7.2,7.2,0,0,0,6.266-3.133,12.549,12.549,0,0,0,1.994-7.405H97.629c-3.987,0-9.968.57-9.968,6.266,0,2.848,2.279,4.272,5.7,4.272" transform="translate(104.019 61.081)" fill="#fff"></path></g><g id="Group_928" data-name="Group 928" clip-path="url(#clip-path)"><rect id="Rectangle_1180" data-name="Rectangle 1180" width="8.829" height="50.982" transform="translate(221.869 113.64)" fill="#fff"></rect></g><g id="Group_929" data-name="Group 929" transform="translate(0 0)" clip-path="url(#clip-path)"><path id="Path_458" data-name="Path 458" d="M105.7,62.7h12.817c14.241,0,27.057,5.127,27.057,24.209,0,19.367-12.532,24.209-27.057,24.209H105.7Zm9.4,40.728h5.127a16.562,16.562,0,0,0,0-33.038H115.1Z" transform="translate(153.195 53.504)" fill="#fff"></path></g><g id="Group_930" data-name="Group 930" transform="translate(0 0)" clip-path="url(#clip-path)"><path id="Path_459" data-name="Path 459" d="M151.305,101.362a22.568,22.568,0,0,1-11.962,2.848c-11.392,0-17.943-6.836-17.943-18.513,0-10.253,5.411-18.8,15.95-18.8,12.817,0,16.519,9.114,16.519,21.646H129.944a9.214,9.214,0,0,0,9.968,9.114,22.546,22.546,0,0,0,11.393-3.7ZM145.324,82c-.285-4.557-2.279-8.544-7.405-8.544s-7.69,3.7-7.975,8.544Z" transform="translate(182.211 61.266)" fill="#fff"></path></g><g id="Group_931" data-name="Group 931" transform="translate(0 0)" clip-path="url(#clip-path)"><path id="Path_460" data-name="Path 460" d="M133.4,67.1h9.684l8.544,26.2h.285l8.26-26.2H169L156.47,102.986H146.217Z" transform="translate(204.388 61.635)" fill="#fff"></path></g><g id="Group_932" data-name="Group 932" transform="translate(0 0)" clip-path="url(#clip-path)"><path id="Path_461" data-name="Path 461" d="M147.7,61.7h8.829v8.829H147.7Zm0,15.38h8.829v35.886H147.7Z" transform="translate(230.817 51.656)" fill="#fff"></path></g><g id="Group_933" data-name="Group 933" transform="translate(0 0)" clip-path="url(#clip-path)"><path id="Path_462" data-name="Path 462" d="M177.594,75.458a12.367,12.367,0,0,0-5.981-1.424c-5.411,0-9.114,4.557-9.114,11.393,0,6.551,3.133,11.677,9.4,11.677a15.047,15.047,0,0,0,6.836-1.709l.285,7.69a27.683,27.683,0,0,1-8.829,1.139c-11.393,0-17.089-7.975-17.089-18.8,0-10.253,5.981-18.513,16.519-18.513a26.589,26.589,0,0,1,8.829,1.139Z" transform="translate(240.796 61.252)" fill="#fff"></path></g><g id="Group_934" data-name="Group 934" transform="translate(0 0)" clip-path="url(#clip-path)"><path id="Path_463" data-name="Path 463" d="M193.205,101.362a21.911,21.911,0,0,1-11.962,2.848c-11.393,0-17.943-6.836-17.943-18.513,0-10.253,5.411-18.8,15.95-18.8,12.817,0,16.519,9.114,16.519,21.646H171.844a9.214,9.214,0,0,0,9.968,9.114,22.546,22.546,0,0,0,11.393-3.7v7.405ZM187.224,82c-.285-4.557-2.279-8.544-7.405-8.544s-7.69,3.7-7.975,8.544Z" transform="translate(259.647 61.266)" fill="#fff"></path></g><g id="Group_935" data-name="Group 935" transform="translate(0 0)" clip-path="url(#clip-path)"><path id="Path_464" data-name="Path 464" d="M198.885,74.977a24.707,24.707,0,0,0-7.975-1.424c-2.279,0-5.411.854-5.411,3.987,0,5.7,15.665,1.994,15.665,15.1,0,8.26-7.12,11.677-14.525,11.677a42.359,42.359,0,0,1-10.253-1.424l.57-7.69a19.385,19.385,0,0,0,8.829,2.279c2.279,0,5.981-.854,5.981-4.272,0-7.12-15.665-2.279-15.665-15.1C176.1,70.42,182.651,67,189.486,67a30.246,30.246,0,0,1,9.684,1.424Z" transform="translate(283.303 61.448)" fill="#fff"></path></g><g id="Group_936" data-name="Group 936" transform="translate(0 0)" clip-path="url(#clip-path)"><path id="Path_465" data-name="Path 465" d="M66.708,28.3c30.76,0,30.475,30.19,30.475,32.469V71.307H51.9c0,10.823,7.405,19.937,25.064,19.937a52.645,52.645,0,0,0,16.8-3.7v15.38A91.376,91.376,0,0,1,72.4,105.484c-23.64,0-39.589-11.677-37.6-44.146.57-9.4,3.418-33.038,31.9-33.038M53.037,56.781H80.094S79.24,40.262,66.423,40.262c-12.532,0-13.386,16.519-13.386,16.519" transform="translate(21.869 -10.072)" fill="#fff"></path></g><g id="Group_937" data-name="Group 937" transform="translate(0 0)" clip-path="url(#clip-path)"><path id="Path_466" data-name="Path 466" d="M162.985,45.489a43.371,43.371,0,0,0-16.234-3.133c-5.411,0-10.538,1.709-10.538,7.405,0,9.114,31.329,6.266,31.329,31.045,0,17.089-14.525,23.924-29.051,23.924a71.608,71.608,0,0,1-20.507-3.133l1.139-15.665a40.267,40.267,0,0,0,17.943,4.842c4.557,0,11.962-1.709,11.962-8.829,0-12.247-31.329-8.26-31.329-31.614C117.7,34.1,133.08,28.4,145.042,28.4a85.008,85.008,0,0,1,19.652,2.848l-1.709,14.241" transform="translate(175.373 -9.887)" fill="#fff"></path></g><g id="Group_938" data-name="Group 938" transform="translate(0 0)" clip-path="url(#clip-path)"><path id="Path_467" data-name="Path 467" d="M92.319,43.11A21.281,21.281,0,0,1,111.971,28.3a16.129,16.129,0,0,1,5.127.854V45.389a15.343,15.343,0,0,0-7.975-.285c-16.234,3.133-14.81,23.355-15.1,27.627v30.475H75.8V29.724H92.034V43.11" transform="translate(97.936 -10.072)" fill="#fff"></path></g><g id="Group_939" data-name="Group 939" transform="translate(0 0)" clip-path="url(#clip-path)"><path id="Path_468" data-name="Path 468" d="M162.1,29.824h17.089V40.362l.285-.285a28.629,28.629,0,0,1,22.5-11.677c16.519,0,23.639,11.962,23.639,28.766v46.14H207.67V65.141c0-10.538-.285-21.931-11.962-21.931-13.671,0-15.665,13.1-15.665,24.494v35.317H162.1v-73.2" transform="translate(257.43 -9.887)" fill="#fff"></path></g><g id="Group_940" data-name="Group 940" transform="translate(0 0)" clip-path="url(#clip-path)"><path id="Path_469" data-name="Path 469" d="M75.719,43.11A21.281,21.281,0,0,1,95.371,28.3a16.129,16.129,0,0,1,5.127.854V45.389a15.272,15.272,0,0,0-7.975-.285c-16.234,3.133-15.1,23.355-15.1,27.342v30.475H59.2v-73.2H75.719V43.11" transform="translate(67.257 -10.072)" fill="#fff"></path></g><g id="Group_941" data-name="Group 941" transform="translate(0 0)" clip-path="url(#clip-path)"><path id="Path_470" data-name="Path 470" d="M164.749,91.533A15.428,15.428,0,0,0,177,84.412c2.563-4.272,2.278-14.525,2.278-14.525h-6.835s-18.513-.854-18.513,11.962c0,7.12,5.411,9.684,10.823,9.684m-27.627-7.975A22.176,22.176,0,0,1,148.8,62.767a44.223,44.223,0,0,1,21.361-4.272h8.26c0-10.823-1.994-15.665-12.532-15.665a64.433,64.433,0,0,0-19.082,2.563l-1.424-14.241A80.1,80.1,0,0,1,167.6,28.3c26.488,0,28.766,13.671,28.766,31.9v23.07c0,8.544.285,9.684.57,19.652h-16.8l-.57-5.411-.285-5.127a20.105,20.105,0,0,1-18.228,12.247c-11.962.285-23.924-7.69-23.924-21.076" transform="translate(211.204 -10.076)" fill="#fff"></path></g><g id="Group_942" data-name="Group 942" transform="translate(0 0)" clip-path="url(#clip-path)"><path id="Path_471" data-name="Path 471" d="M126.456,28.2c20.791,0,36.456,14.81,36.456,39.019,0,21.361-13.386,38.165-36.456,38.165C103.386,105.669,90,88.58,90,67.5c0-24.494,15.95-39.3,36.456-39.3m0,62.374c13.956,0,17.658-13.1,17.658-25.348,0-11.393-5.7-21.931-17.658-21.931-11.677,0-17.374,10.823-17.374,21.931,0,11.962,3.7,25.348,17.374,25.348" transform="translate(124.179 -10.257)" fill="#fff"></path></g><g id="Group_943" data-name="Group 943" transform="translate(0 0)" clip-path="url(#clip-path)"><path id="Path_472" data-name="Path 472" d="M74.326,38.134V21.9H14.8v93.134H32.743V76.014H63.788V61.2H32.743V38.134Z" transform="translate(-14.8 -21.9)" fill="#fff"></path></g></g></g></g></svg> 